<svg xmlns="http://www.w3.org/2000/svg" width="960" height="330" viewBox="0 0 960 330" role="img" aria-labelledby="t d">
<title id="t">MoMo</title>
<desc id="d">Pixel sheep walk across a night sky under the MoMo title. Cyan sheep are agents at work, a magenta sheep with a blinking exclamation mark needs you, a green sheep is done, and a sleeping sheep is idle.</desc>
<defs>
<linearGradient id="sky" x1="0" y1="0" x2="0" y2="1"><stop offset="0" stop-color="#0b1020"/><stop offset="1" stop-color="#121a33"/></linearGradient>
<linearGradient id="title" x1="0" y1="0" x2="1" y2="1"><stop offset="0" stop-color="#37e2ff"/><stop offset="1" stop-color="#8f7dff"/></linearGradient>
</defs>
<style>
.herd { animation: walk 16s linear -9s infinite; }
.legs-a { animation: step 0.5s steps(1) infinite; }
.legs-b { animation: step 0.5s steps(1) infinite reverse; opacity: 0; }
.blink { animation: blink 1s steps(1) infinite; }
.ground { animation: scroll 4s linear infinite; }
.zz { animation: float 3s ease-in infinite; }
.zz2 { animation: float 3s ease-in 1.5s infinite; opacity: 0; }
@keyframes walk { from { transform: translateX(-460px); } to { transform: translateX(960px); } }
@keyframes step { 0% { opacity: 1; } 50% { opacity: 0; } }
@keyframes blink { 0% { opacity: 1; } 50% { opacity: 0; } }
@keyframes scroll { from { transform: translateX(0); } to { transform: translateX(-56px); } }
@keyframes float { 0% { opacity: 0; transform: translate(0, 0); } 20% { opacity: 1; } 100% { opacity: 0; transform: translate(14px, -34px); } }
@media (prefers-reduced-motion: reduce) { .herd, .legs-a, .legs-b, .blink, .ground, .zz, .zz2 { animation: none; } .herd { transform: translateX(380px); } }
</style>
<rect width="960" height="330" rx="18" fill="url(#sky)"/>
<rect x="40" y="30" width="2" height="2" fill="#d7def5" opacity="0.5"/><rect x="130" y="70" width="2" height="2" fill="#d7def5" opacity="0.3"/><rect x="240" y="24" width="2" height="2" fill="#d7def5" opacity="0.6"/><rect x="380" y="52" width="2" height="2" fill="#d7def5" opacity="0.25"/><rect x="520" y="20" width="2" height="2" fill="#d7def5" opacity="0.45"/><rect x="610" y="64" width="2" height="2" fill="#d7def5" opacity="0.3"/><rect x="700" y="36" width="2" height="2" fill="#d7def5" opacity="0.55"/><rect x="790" y="18" width="2" height="2" fill="#d7def5" opacity="0.35"/><rect x="880" y="58" width="2" height="2" fill="#d7def5" opacity="0.5"/><rect x="930" y="110" width="2" height="2" fill="#d7def5" opacity="0.3"/><rect x="60" y="150" width="2" height="2" fill="#d7def5" opacity="0.25"/><rect x="470" y="120" width="2" height="2" fill="#d7def5" opacity="0.2"/><rect x="660" y="140" width="2" height="2" fill="#d7def5" opacity="0.25"/>
<rect x="56" y="48" width="12" height="12" fill="url(#title)"/><rect x="104" y="48" width="12" height="12" fill="url(#title)"/><rect x="56" y="60" width="12" height="12" fill="url(#title)"/><rect x="68" y="60" width="12" height="12" fill="url(#title)"/><rect x="92" y="60" width="12" height="12" fill="url(#title)"/><rect x="104" y="60" width="12" height="12" fill="url(#title)"/><rect x="56" y="72" width="12" height="12" fill="url(#title)"/><rect x="80" y="72" width="12" height="12" fill="url(#title)"/><rect x="104" y="72" width="12" height="12" fill="url(#title)"/><rect x="56" y="84" width="12" height="12" fill="url(#title)"/><rect x="80" y="84" width="12" height="12" fill="url(#title)"/><rect x="104" y="84" width="12" height="12" fill="url(#title)"/><rect x="56" y="96" width="12" height="12" fill="url(#title)"/><rect x="104" y="96" width="12" height="12" fill="url(#title)"/><rect x="56" y="108" width="12" height="12" fill="url(#title)"/><rect x="104" y="108" width="12" height="12" fill="url(#title)"/><rect x="56" y="120" width="12" height="12" fill="url(#title)"/><rect x="104" y="120" width="12" height="12" fill="url(#title)"/><rect x="140" y="72" width="12" height="12" fill="#ff4fd8"/><rect x="152" y="72" width="12" height="12" fill="#ff4fd8"/><rect x="164" y="72" width="12" height="12" fill="#ff4fd8"/><rect x="128" y="84" width="12" height="12" fill="#ff4fd8"/><rect x="176" y="84" width="12" height="12" fill="#ff4fd8"/><rect x="128" y="96" width="12" height="12" fill="#ff4fd8"/><rect x="176" y="96" width="12" height="12" fill="#ff4fd8"/><rect x="128" y="108" width="12" height="12" fill="#ff4fd8"/><rect x="176" y="108" width="12" height="12" fill="#ff4fd8"/><rect x="140" y="120" width="12" height="12" fill="#ff4fd8"/><rect x="152" y="120" width="12" height="12" fill="#ff4fd8"/><rect x="164" y="120" width="12" height="12" fill="#ff4fd8"/><rect x="200" y="48" width="12" height="12" fill="url(#title)"/><rect x="248" y="48" width="12" height="12" fill="url(#title)"/><rect x="200" y="60" width="12" height="12" fill="url(#title)"/><rect x="212" y="60" width="12" height="12" fill="url(#title)"/><rect x="236" y="60" width="12" height="12" fill="url(#title)"/><rect x="248" y="60" width="12" height="12" fill="url(#title)"/><rect x="200" y="72" width="12" height="12" fill="url(#title)"/><rect x="224" y="72" width="12" height="12" fill="url(#title)"/><rect x="248" y="72" width="12" height="12" fill="url(#title)"/><rect x="200" y="84" width="12" height="12" fill="url(#title)"/><rect x="224" y="84" width="12" height="12" fill="url(#title)"/><rect x="248" y="84" width="12" height="12" fill="url(#title)"/><rect x="200" y="96" width="12" height="12" fill="url(#title)"/><rect x="248" y="96" width="12" height="12" fill="url(#title)"/><rect x="200" y="108" width="12" height="12" fill="url(#title)"/><rect x="248" y="108" width="12" height="12" fill="url(#title)"/><rect x="200" y="120" width="12" height="12" fill="url(#title)"/><rect x="248" y="120" width="12" height="12" fill="url(#title)"/><rect x="284" y="72" width="12" height="12" fill="#ff4fd8"/><rect x="296" y="72" width="12" height="12" fill="#ff4fd8"/><rect x="308" y="72" width="12" height="12" fill="#ff4fd8"/><rect x="272" y="84" width="12" height="12" fill="#ff4fd8"/><rect x="320" y="84" width="12" height="12" fill="#ff4fd8"/><rect x="272" y="96" width="12" height="12" fill="#ff4fd8"/><rect x="320" y="96" width="12" height="12" fill="#ff4fd8"/><rect x="272" y="108" width="12" height="12" fill="#ff4fd8"/><rect x="320" y="108" width="12" height="12" fill="#ff4fd8"/><rect x="284" y="120" width="12" height="12" fill="#ff4fd8"/><rect x="296" y="120" width="12" height="12" fill="#ff4fd8"/><rect x="308" y="120" width="12" height="12" fill="#ff4fd8"/>
<text x="58" y="172" fill="#d7def5" font-family="ui-monospace, SFMono-Regular, Menlo, Consolas, monospace" font-size="20">a terminal runtime for your coding agents</text>
<text x="58" y="198" fill="#5b6690" font-family="ui-monospace, SFMono-Regular, Menlo, Consolas, monospace" font-size="15">workspaces · tabs · panes · a herd that tells you who needs you</text>
<g class="ground"><rect x="0" y="306" width="4" height="4" fill="#5b6690"/><rect x="56" y="306" width="4" height="4" fill="#5b6690"/><rect x="112" y="306" width="4" height="4" fill="#5b6690"/><rect x="168" y="306" width="4" height="4" fill="#5b6690"/><rect x="224" y="306" width="4" height="4" fill="#5b6690"/><rect x="280" y="306" width="4" height="4" fill="#5b6690"/><rect x="336" y="306" width="4" height="4" fill="#5b6690"/><rect x="392" y="306" width="4" height="4" fill="#5b6690"/><rect x="448" y="306" width="4" height="4" fill="#5b6690"/><rect x="504" y="306" width="4" height="4" fill="#5b6690"/><rect x="560" y="306" width="4" height="4" fill="#5b6690"/><rect x="616" y="306" width="4" height="4" fill="#5b6690"/><rect x="672" y="306" width="4" height="4" fill="#5b6690"/><rect x="728" y="306" width="4" height="4" fill="#5b6690"/><rect x="784" y="306" width="4" height="4" fill="#5b6690"/><rect x="840" y="306" width="4" height="4" fill="#5b6690"/><rect x="896" y="306" width="4" height="4" fill="#5b6690"/><rect x="952" y="306" width="4" height="4" fill="#5b6690"/><rect x="1008" y="306" width="4" height="4" fill="#5b6690"/><rect x="1064" y="306" width="4" height="4" fill="#5b6690"/><rect x="1120" y="306" width="4" height="4" fill="#5b6690"/><rect x="1176" y="306" width="4" height="4" fill="#5b6690"/><rect x="1232" y="306" width="4" height="4" fill="#5b6690"/><rect x="1288" y="306" width="4" height="4" fill="#5b6690"/><rect x="1344" y="306" width="4" height="4" fill="#5b6690"/><rect x="1400" y="306" width="4" height="4" fill="#5b6690"/><rect x="1456" y="306" width="4" height="4" fill="#5b6690"/><rect x="1512" y="306" width="4" height="4" fill="#5b6690"/><rect x="1568" y="306" width="4" height="4" fill="#5b6690"/><rect x="1624" y="306" width="4" height="4" fill="#5b6690"/><rect x="1680" y="306" width="4" height="4" fill="#5b6690"/><rect x="1736" y="306" width="4" height="4" fill="#5b6690"/><rect x="1792" y="306" width="4" height="4" fill="#5b6690"/><rect x="1848" y="306" width="4" height="4" fill="#5b6690"/><rect x="1904" y="306" width="4" height="4" fill="#5b6690"/></g>
<g class="herd"><rect x="10" y="250" width="10" height="10" fill="#37e2ff"/><rect x="20" y="250" width="10" height="10" fill="#37e2ff"/><rect x="30" y="250" width="10" height="10" fill="#37e2ff"/><rect x="0" y="260" width="10" height="10" fill="#37e2ff"/><rect x="10" y="260" width="10" height="10" fill="#37e2ff"/><rect x="20" y="260" width="10" height="10" fill="#37e2ff"/><rect x="30" y="260" width="10" height="10" fill="#37e2ff"/><rect x="40" y="260" width="10" height="10" fill="#37e2ff"/><rect x="50" y="260" width="10" height="10" fill="#7682ad"/><rect x="60" y="260" width="10" height="10" fill="#7682ad"/><rect x="0" y="270" width="10" height="10" fill="#37e2ff"/><rect x="10" y="270" width="10" height="10" fill="#37e2ff"/><rect x="20" y="270" width="10" height="10" fill="#37e2ff"/><rect x="30" y="270" width="10" height="10" fill="#37e2ff"/><rect x="40" y="270" width="10" height="10" fill="#37e2ff"/><rect x="50" y="270" width="10" height="10" fill="#7682ad"/><g class="legs-a"><rect x="10" y="280" width="10" height="10" fill="#5b6690"/><rect x="40" y="280" width="10" height="10" fill="#5b6690"/><rect x="10" y="290" width="10" height="10" fill="#5b6690"/><rect x="40" y="290" width="10" height="10" fill="#5b6690"/></g><g class="legs-b"><rect x="20" y="280" width="10" height="10" fill="#5b6690"/><rect x="30" y="280" width="10" height="10" fill="#5b6690"/><rect x="20" y="290" width="10" height="10" fill="#5b6690"/><rect x="30" y="290" width="10" height="10" fill="#5b6690"/></g><rect x="120" y="250" width="10" height="10" fill="#37e2ff"/><rect x="130" y="250" width="10" height="10" fill="#37e2ff"/><rect x="140" y="250" width="10" height="10" fill="#37e2ff"/><rect x="110" y="260" width="10" height="10" fill="#37e2ff"/><rect x="120" y="260" width="10" height="10" fill="#37e2ff"/><rect x="130" y="260" width="10" height="10" fill="#37e2ff"/><rect x="140" y="260" width="10" height="10" fill="#37e2ff"/><rect x="150" y="260" width="10" height="10" fill="#37e2ff"/><rect x="160" y="260" width="10" height="10" fill="#7682ad"/><rect x="170" y="260" width="10" height="10" fill="#7682ad"/><rect x="110" y="270" width="10" height="10" fill="#37e2ff"/><rect x="120" y="270" width="10" height="10" fill="#37e2ff"/><rect x="130" y="270" width="10" height="10" fill="#37e2ff"/><rect x="140" y="270" width="10" height="10" fill="#37e2ff"/><rect x="150" y="270" width="10" height="10" fill="#37e2ff"/><rect x="160" y="270" width="10" height="10" fill="#7682ad"/><g class="legs-a"><rect x="120" y="280" width="10" height="10" fill="#5b6690"/><rect x="150" y="280" width="10" height="10" fill="#5b6690"/><rect x="120" y="290" width="10" height="10" fill="#5b6690"/><rect x="150" y="290" width="10" height="10" fill="#5b6690"/></g><g class="legs-b"><rect x="130" y="280" width="10" height="10" fill="#5b6690"/><rect x="140" y="280" width="10" height="10" fill="#5b6690"/><rect x="130" y="290" width="10" height="10" fill="#5b6690"/><rect x="140" y="290" width="10" height="10" fill="#5b6690"/></g><rect x="230" y="250" width="10" height="10" fill="#ff4fd8"/><rect x="240" y="250" width="10" height="10" fill="#ff4fd8"/><rect x="250" y="250" width="10" height="10" fill="#ff4fd8"/><rect x="220" y="260" width="10" height="10" fill="#ff4fd8"/><rect x="230" y="260" width="10" height="10" fill="#ff4fd8"/><rect x="240" y="260" width="10" height="10" fill="#ff4fd8"/><rect x="250" y="260" width="10" height="10" fill="#ff4fd8"/><rect x="260" y="260" width="10" height="10" fill="#ff4fd8"/><rect x="270" y="260" width="10" height="10" fill="#7682ad"/><rect x="280" y="260" width="10" height="10" fill="#7682ad"/><rect x="220" y="270" width="10" height="10" fill="#ff4fd8"/><rect x="230" y="270" width="10" height="10" fill="#ff4fd8"/><rect x="240" y="270" width="10" height="10" fill="#ff4fd8"/><rect x="250" y="270" width="10" height="10" fill="#ff4fd8"/><rect x="260" y="270" width="10" height="10" fill="#ff4fd8"/><rect x="270" y="270" width="10" height="10" fill="#7682ad"/><g class="legs-a"><rect x="230" y="280" width="10" height="10" fill="#5b6690"/><rect x="260" y="280" width="10" height="10" fill="#5b6690"/><rect x="230" y="290" width="10" height="10" fill="#5b6690"/><rect x="260" y="290" width="10" height="10" fill="#5b6690"/></g><g class="legs-b"><rect x="240" y="280" width="10" height="10" fill="#5b6690"/><rect x="250" y="280" width="10" height="10" fill="#5b6690"/><rect x="240" y="290" width="10" height="10" fill="#5b6690"/><rect x="250" y="290" width="10" height="10" fill="#5b6690"/></g><g class="blink"><rect x="250" y="210" width="10" height="20" fill="#ff4fd8"/><rect x="250" y="235.0" width="10" height="10" fill="#ff4fd8"/></g><rect x="340" y="250" width="10" height="10" fill="#7cf29a"/><rect x="350" y="250" width="10" height="10" fill="#7cf29a"/><rect x="360" y="250" width="10" height="10" fill="#7cf29a"/><rect x="330" y="260" width="10" height="10" fill="#7cf29a"/><rect x="340" y="260" width="10" height="10" fill="#7cf29a"/><rect x="350" y="260" width="10" height="10" fill="#7cf29a"/><rect x="360" y="260" width="10" height="10" fill="#7cf29a"/><rect x="370" y="260" width="10" height="10" fill="#7cf29a"/><rect x="380" y="260" width="10" height="10" fill="#7682ad"/><rect x="390" y="260" width="10" height="10" fill="#7682ad"/><rect x="330" y="270" width="10" height="10" fill="#7cf29a"/><rect x="340" y="270" width="10" height="10" fill="#7cf29a"/><rect x="350" y="270" width="10" height="10" fill="#7cf29a"/><rect x="360" y="270" width="10" height="10" fill="#7cf29a"/><rect x="370" y="270" width="10" height="10" fill="#7cf29a"/><rect x="380" y="270" width="10" height="10" fill="#7682ad"/><g class="legs-a"><rect x="340" y="280" width="10" height="10" fill="#5b6690"/><rect x="370" y="280" width="10" height="10" fill="#5b6690"/><rect x="340" y="290" width="10" height="10" fill="#5b6690"/><rect x="370" y="290" width="10" height="10" fill="#5b6690"/></g><g class="legs-b"><rect x="350" y="280" width="10" height="10" fill="#5b6690"/><rect x="360" y="280" width="10" height="10" fill="#5b6690"/><rect x="350" y="290" width="10" height="10" fill="#5b6690"/><rect x="360" y="290" width="10" height="10" fill="#5b6690"/></g></g>
<rect x="830" y="270" width="10" height="10" fill="#8b9ad6"/><rect x="840" y="270" width="10" height="10" fill="#8b9ad6"/><rect x="850" y="270" width="10" height="10" fill="#8b9ad6"/><rect x="820" y="280" width="10" height="10" fill="#8b9ad6"/><rect x="830" y="280" width="10" height="10" fill="#8b9ad6"/><rect x="840" y="280" width="10" height="10" fill="#8b9ad6"/><rect x="850" y="280" width="10" height="10" fill="#8b9ad6"/><rect x="860" y="280" width="10" height="10" fill="#8b9ad6"/><rect x="870" y="280" width="10" height="10" fill="#7682ad"/><rect x="820" y="290" width="10" height="10" fill="#8b9ad6"/><rect x="830" y="290" width="10" height="10" fill="#8b9ad6"/><rect x="840" y="290" width="10" height="10" fill="#8b9ad6"/><rect x="850" y="290" width="10" height="10" fill="#8b9ad6"/><rect x="860" y="290" width="10" height="10" fill="#8b9ad6"/><rect x="870" y="290" width="10" height="10" fill="#7682ad"/><rect x="880" y="290" width="10" height="10" fill="#7682ad"/>
<text class="zz" x="878" y="266" fill="#8b9ad6" font-family="ui-monospace, Menlo, monospace" font-size="16">z</text>
<text class="zz2" x="878" y="266" fill="#8b9ad6" font-family="ui-monospace, Menlo, monospace" font-size="22">Z</text>
</svg>
