<svg xmlns="http://www.w3.org/2000/svg" width="1082" height="642" viewBox="0 0 1082 642" role="img" aria-label="MoMo · api-server"><rect width="100%" height="100%" rx="12" fill="#0b1020"/><rect width="100%" height="34" rx="12" fill="#161f3d"/><rect y="22" width="100%" height="12" fill="#161f3d"/><circle cx="20" cy="17" r="6" fill="#ff5f57"/><circle cx="40" cy="17" r="6" fill="#febc2e"/><circle cx="60" cy="17" r="6" fill="#28c840"/><text x="541" y="22" fill="#8a95c0" font-family="ui-sans-serif, -apple-system, Segoe UI, Helvetica, Arial, sans-serif" font-size="13" text-anchor="middle">MoMo · api-server</text><g font-family="ui-monospace, SFMono-Regular, Menlo, Consolas, monospace" font-size="14" xml:space="preserve"><rect x="234.4" y="50" width="84.4" height="18" fill="#37e2ff"/><rect x="318.4" y="50" width="8.8" height="18" fill="#0b1020"/><rect x="326.8" y="50" width="67.6" height="18" fill="#1a2444"/><rect x="394.0" y="50" width="672.4" height="18" fill="#0b1020"/><rect x="24.4" y="59.0" width="8.8" height="9.0" fill="#37e2ff"/><rect x="32.8" y="59.0" width="8.8" height="9.0" fill="#37e2ff"/><rect x="41.2" y="59.0" width="8.8" height="9.0" fill="#37e2ff"/><rect x="142.0" y="59.0" width="8.8" height="9.0" fill="#ff4fd8"/><rect x="150.4" y="59.0" width="8.8" height="9.0" fill="#ff4fd8"/><rect x="158.8" y="59.0" width="8.8" height="9.0" fill="#ff4fd8"/><text x="175.6" y="63" fill="#ff4fd8" textLength="8.4" lengthAdjust="spacing" font-weight="700">!</text><rect x="217.6" y="59.0" width="8.8" height="9.0" fill="#37e2ff"/><text x="226.0" y="63" fill="#10172d" textLength="8.4" lengthAdjust="spacing">│</text><text x="251.2" y="63" fill="#0b1020" textLength="50.4" lengthAdjust="spacing" font-weight="700">agents</text><text x="343.6" y="63" fill="#7682ad" textLength="33.6" lengthAdjust="spacing">logs</text><text x="410.8" y="63" fill="#7682ad" textLength="8.4" lengthAdjust="spacing">+</text><rect x="16.0" y="68" width="8.8" height="9.4" fill="#37e2ff"/><rect x="16.0" y="77.0" width="8.8" height="9.0" fill="#37e2ff"/><rect x="24.4" y="68" width="8.8" height="9.4" fill="#37e2ff"/><rect x="24.4" y="77.0" width="8.8" height="9.0" fill="#37e2ff"/><rect x="32.8" y="68" width="8.8" height="9.4" fill="#37e2ff"/><rect x="32.8" y="77.0" width="8.8" height="9.0" fill="#37e2ff"/><rect x="41.2" y="68" width="8.8" height="9.4" fill="#37e2ff"/><rect x="41.2" y="77.0" width="8.8" height="9.0" fill="#37e2ff"/><rect x="49.6" y="68" width="8.8" height="9.4" fill="#37e2ff"/><rect x="49.6" y="77.0" width="8.8" height="9.0" fill="#37e2ff"/><rect x="58.0" y="68" width="8.8" height="9.4" fill="#7682ad"/><rect x="58.0" y="77.0" width="8.8" height="9.0" fill="#7682ad"/><rect x="66.4" y="68" width="8.8" height="9.4" fill="#7682ad"/><rect x="133.6" y="68" width="8.8" height="9.4" fill="#ff4fd8"/><rect x="133.6" y="77.0" width="8.8" height="9.0" fill="#ff4fd8"/><rect x="142.0" y="68" width="8.8" height="9.4" fill="#ff4fd8"/><rect x="142.0" y="77.0" width="8.8" height="9.0" fill="#ff4fd8"/><rect x="150.4" y="68" width="8.8" height="9.4" fill="#ff4fd8"/><rect x="150.4" y="77.0" width="8.8" height="9.0" fill="#ff4fd8"/><rect x="158.8" y="68" width="8.8" height="9.4" fill="#ff4fd8"/><rect x="158.8" y="77.0" width="8.8" height="9.0" fill="#ff4fd8"/><rect x="167.2" y="68" width="8.8" height="9.4" fill="#ff4fd8"/><rect x="167.2" y="77.0" width="8.8" height="9.0" fill="#ff4fd8"/><rect x="175.6" y="68" width="8.8" height="9.4" fill="#7682ad"/><rect x="175.6" y="77.0" width="8.8" height="9.0" fill="#7682ad"/><rect x="184.0" y="68" width="8.8" height="9.4" fill="#7682ad"/><rect x="209.2" y="68" width="8.8" height="9.4" fill="#37e2ff"/><rect x="209.2" y="77.0" width="8.8" height="9.0" fill="#37e2ff"/><rect x="217.6" y="68" width="8.8" height="9.4" fill="#37e2ff"/><rect x="217.6" y="77.0" width="8.8" height="9.0" fill="#37e2ff"/><text x="226.0" y="81" fill="#10172d" textLength="8.4" lengthAdjust="spacing">│</text><text x="234.4" y="81" fill="#37e2ff" textLength="378.0" lengthAdjust="spacing">┌───────────────────────────────────────────┐</text><text x="612.4" y="81" fill="#5b6690" textLength="453.6" lengthAdjust="spacing">┌────────────────────────────────────────────────────┐</text><rect x="32.8" y="86" width="8.8" height="9.4" fill="#5b6690"/><rect x="32.8" y="95.0" width="8.8" height="9.0" fill="#5b6690"/><rect x="41.2" y="86" width="8.8" height="9.4" fill="#5b6690"/><rect x="41.2" y="95.0" width="8.8" height="9.0" fill="#5b6690"/><text x="49.6" y="99" fill="#253257" textLength="8.4" lengthAdjust="spacing">·</text><text x="108.4" y="99" fill="#253257" textLength="8.4" lengthAdjust="spacing">·</text><rect x="150.4" y="86" width="8.8" height="9.4" fill="#5b6690"/><rect x="150.4" y="95.0" width="8.8" height="9.0" fill="#5b6690"/><rect x="158.8" y="86" width="8.8" height="9.4" fill="#5b6690"/><rect x="158.8" y="95.0" width="8.8" height="9.0" fill="#5b6690"/><text x="167.2" y="99" fill="#253257" textLength="8.4" lengthAdjust="spacing">·</text><text x="226.0" y="99" fill="#10172d" textLength="8.4" lengthAdjust="spacing">│</text><text x="234.4" y="99" fill="#37e2ff" textLength="8.4" lengthAdjust="spacing">│</text><text x="242.8" y="99" fill="#37e2ff" textLength="67.2" lengthAdjust="spacing" font-weight="700">●&#160;claude</text><text x="326.8" y="99" fill="#d7def5" textLength="243.6" lengthAdjust="spacing">adding&#160;rate&#160;limits&#160;to&#160;the&#160;API</text><text x="604.0" y="99" fill="#37e2ff" textLength="8.4" lengthAdjust="spacing">│</text><text x="612.4" y="99" fill="#5b6690" textLength="8.4" lengthAdjust="spacing">│</text><text x="620.8" y="99" fill="#d7def5" textLength="159.6" lengthAdjust="spacing">$&#160;cargo&#160;test&#160;limits</text><text x="1057.6" y="99" fill="#5b6690" textLength="8.4" lengthAdjust="spacing">│</text><text x="24.4" y="117" fill="#37e2ff" textLength="33.6" lengthAdjust="spacing" font-weight="700">MoMo</text><text x="74.8" y="117" fill="#37e2ff" textLength="25.2" lengthAdjust="spacing">●&#160;2</text><text x="116.8" y="117" fill="#ff4fd8" textLength="25.2" lengthAdjust="spacing" font-weight="700">▲&#160;1</text><text x="226.0" y="117" fill="#10172d" textLength="8.4" lengthAdjust="spacing">│</text><text x="234.4" y="117" fill="#37e2ff" textLength="8.4" lengthAdjust="spacing">│</text><text x="604.0" y="117" fill="#37e2ff" textLength="8.4" lengthAdjust="spacing">│</text><text x="612.4" y="117" fill="#5b6690" textLength="8.4" lengthAdjust="spacing">│</text><text x="646.0" y="117" fill="#d7def5" textLength="226.8" lengthAdjust="spacing">Compiling&#160;api-server&#160;v0.4.0</text><text x="1057.6" y="117" fill="#5b6690" textLength="8.4" lengthAdjust="spacing">│</text><text x="24.4" y="135" fill="#5b6690" textLength="50.4" lengthAdjust="spacing" font-weight="700">spaces</text><text x="226.0" y="135" fill="#10172d" textLength="8.4" lengthAdjust="spacing">│</text><text x="234.4" y="135" fill="#37e2ff" textLength="8.4" lengthAdjust="spacing">│</text><text x="259.6" y="135" fill="#7cf29a" textLength="8.4" lengthAdjust="spacing">✓</text><text x="276.4" y="135" fill="#d7def5" textLength="210.0" lengthAdjust="spacing">Read&#160;src/server/routes.rs</text><text x="604.0" y="135" fill="#37e2ff" textLength="8.4" lengthAdjust="spacing">│</text><text x="612.4" y="135" fill="#5b6690" textLength="8.4" lengthAdjust="spacing">│</text><text x="654.4" y="135" fill="#d7def5" textLength="310.8" lengthAdjust="spacing">Finished&#160;test&#160;[unoptimized]&#160;target(s)</text><text x="1057.6" y="135" fill="#5b6690" textLength="8.4" lengthAdjust="spacing">│</text><text x="226.0" y="153" fill="#10172d" textLength="8.4" lengthAdjust="spacing">│</text><text x="234.4" y="153" fill="#37e2ff" textLength="8.4" lengthAdjust="spacing">│</text><text x="259.6" y="153" fill="#7cf29a" textLength="8.4" lengthAdjust="spacing">✓</text><text x="276.4" y="153" fill="#d7def5" textLength="210.0" lengthAdjust="spacing">Read&#160;src/server/limits.rs</text><text x="604.0" y="153" fill="#37e2ff" textLength="8.4" lengthAdjust="spacing">│</text><text x="612.4" y="153" fill="#5b6690" textLength="8.4" lengthAdjust="spacing">│</text><text x="662.8" y="153" fill="#d7def5" textLength="235.2" lengthAdjust="spacing">Running&#160;unittests&#160;src/lib.rs</text><text x="1057.6" y="153" fill="#5b6690" textLength="8.4" lengthAdjust="spacing">│</text><rect x="16.0" y="158" width="210.4" height="18" fill="#16213f"/><text x="24.4" y="171" fill="#37e2ff" textLength="8.4" lengthAdjust="spacing">●</text><text x="41.2" y="171" fill="#d7def5" textLength="84.0" lengthAdjust="spacing" font-weight="700">api-server</text><text x="226.0" y="171" fill="#10172d" textLength="8.4" lengthAdjust="spacing">│</text><text x="234.4" y="171" fill="#37e2ff" textLength="8.4" lengthAdjust="spacing">│</text><text x="259.6" y="171" fill="#37e2ff" textLength="8.4" lengthAdjust="spacing">●</text><text x="276.4" y="171" fill="#d7def5" textLength="210.0" lengthAdjust="spacing">Edit&#160;src/server/limits.rs</text><text x="503.2" y="171" fill="#7cf29a" textLength="25.2" lengthAdjust="spacing">+42</text><text x="536.8" y="171" fill="#ff4fd8" textLength="16.8" lengthAdjust="spacing">-6</text><text x="604.0" y="171" fill="#37e2ff" textLength="8.4" lengthAdjust="spacing">│</text><text x="612.4" y="171" fill="#5b6690" textLength="8.4" lengthAdjust="spacing">│</text><text x="1057.6" y="171" fill="#5b6690" textLength="8.4" lengthAdjust="spacing">│</text><rect x="16.0" y="176" width="210.4" height="18" fill="#16213f"/><text x="41.2" y="189" fill="#b58cff" textLength="134.4" lengthAdjust="spacing">feat/rate-limits</text><text x="226.0" y="189" fill="#10172d" textLength="8.4" lengthAdjust="spacing">│</text><text x="234.4" y="189" fill="#37e2ff" textLength="8.4" lengthAdjust="spacing">│</text><text x="604.0" y="189" fill="#37e2ff" textLength="8.4" lengthAdjust="spacing">│</text><text x="612.4" y="189" fill="#5b6690" textLength="8.4" lengthAdjust="spacing">│</text><text x="620.8" y="189" fill="#d7def5" textLength="126.0" lengthAdjust="spacing">running&#160;6&#160;tests</text><text x="1057.6" y="189" fill="#5b6690" textLength="8.4" lengthAdjust="spacing">│</text><text x="24.4" y="207" fill="#ff4fd8" textLength="8.4" lengthAdjust="spacing">●</text><text x="41.2" y="207" fill="#aab4d6" textLength="58.8" lengthAdjust="spacing">web-app</text><text x="226.0" y="207" fill="#10172d" textLength="8.4" lengthAdjust="spacing">│</text><text x="234.4" y="207" fill="#37e2ff" textLength="8.4" lengthAdjust="spacing">│</text><text x="276.4" y="207" fill="#d7def5" textLength="184.8" lengthAdjust="spacing">pub&#160;struct&#160;RateLimit&#160;{</text><text x="604.0" y="207" fill="#37e2ff" textLength="8.4" lengthAdjust="spacing">│</text><text x="612.4" y="207" fill="#5b6690" textLength="8.4" lengthAdjust="spacing">│</text><text x="620.8" y="207" fill="#d7def5" textLength="243.6" lengthAdjust="spacing">test&#160;limits::allows_burst&#160;...</text><text x="872.8" y="207" fill="#7cf29a" textLength="16.8" lengthAdjust="spacing">ok</text><text x="1057.6" y="207" fill="#5b6690" textLength="8.4" lengthAdjust="spacing">│</text><text x="41.2" y="225" fill="#5b6690" textLength="142.8" lengthAdjust="spacing">fix/checkout-form</text><text x="226.0" y="225" fill="#10172d" textLength="8.4" lengthAdjust="spacing">│</text><text x="234.4" y="225" fill="#37e2ff" textLength="8.4" lengthAdjust="spacing">│</text><text x="310.0" y="225" fill="#d7def5" textLength="134.4" lengthAdjust="spacing">per_minute:&#160;u32,</text><text x="604.0" y="225" fill="#37e2ff" textLength="8.4" lengthAdjust="spacing">│</text><text x="612.4" y="225" fill="#5b6690" textLength="8.4" lengthAdjust="spacing">│</text><text x="620.8" y="225" fill="#d7def5" textLength="294.0" lengthAdjust="spacing">test&#160;limits::blocks_after_quota&#160;...</text><text x="923.2" y="225" fill="#7cf29a" textLength="16.8" lengthAdjust="spacing">ok</text><text x="1057.6" y="225" fill="#5b6690" textLength="8.4" lengthAdjust="spacing">│</text><text x="24.4" y="243" fill="#7cf29a" textLength="8.4" lengthAdjust="spacing">●</text><text x="41.2" y="243" fill="#aab4d6" textLength="33.6" lengthAdjust="spacing">docs</text><text x="226.0" y="243" fill="#10172d" textLength="8.4" lengthAdjust="spacing">│</text><text x="234.4" y="243" fill="#37e2ff" textLength="8.4" lengthAdjust="spacing">│</text><text x="310.0" y="243" fill="#d7def5" textLength="92.4" lengthAdjust="spacing">burst:&#160;u32,</text><text x="604.0" y="243" fill="#37e2ff" textLength="8.4" lengthAdjust="spacing">│</text><text x="612.4" y="243" fill="#5b6690" textLength="8.4" lengthAdjust="spacing">│</text><text x="620.8" y="243" fill="#d7def5" textLength="294.0" lengthAdjust="spacing">test&#160;limits::resets_each_minute&#160;...</text><text x="923.2" y="243" fill="#7cf29a" textLength="16.8" lengthAdjust="spacing">ok</text><text x="1057.6" y="243" fill="#5b6690" textLength="8.4" lengthAdjust="spacing">│</text><text x="41.2" y="261" fill="#5b6690" textLength="134.4" lengthAdjust="spacing">docs/quick-start</text><text x="226.0" y="261" fill="#10172d" textLength="8.4" lengthAdjust="spacing">│</text><text x="234.4" y="261" fill="#37e2ff" textLength="8.4" lengthAdjust="spacing">│</text><text x="276.4" y="261" fill="#d7def5" textLength="8.4" lengthAdjust="spacing">}</text><text x="604.0" y="261" fill="#37e2ff" textLength="8.4" lengthAdjust="spacing">│</text><text x="612.4" y="261" fill="#5b6690" textLength="8.4" lengthAdjust="spacing">│</text><text x="620.8" y="261" fill="#d7def5" textLength="302.4" lengthAdjust="spacing">test&#160;routes::health_is_unlimited&#160;...</text><text x="931.6" y="261" fill="#7cf29a" textLength="16.8" lengthAdjust="spacing">ok</text><text x="1057.6" y="261" fill="#5b6690" textLength="8.4" lengthAdjust="spacing">│</text><text x="226.0" y="279" fill="#10172d" textLength="8.4" lengthAdjust="spacing">│</text><text x="234.4" y="279" fill="#37e2ff" textLength="8.4" lengthAdjust="spacing">│</text><text x="604.0" y="279" fill="#37e2ff" textLength="8.4" lengthAdjust="spacing">│</text><text x="612.4" y="279" fill="#5b6690" textLength="8.4" lengthAdjust="spacing">│</text><text x="620.8" y="279" fill="#d7def5" textLength="235.2" lengthAdjust="spacing">test&#160;routes::returns_429&#160;...</text><text x="864.4" y="279" fill="#7cf29a" textLength="16.8" lengthAdjust="spacing">ok</text><text x="1057.6" y="279" fill="#5b6690" textLength="8.4" lengthAdjust="spacing">│</text><text x="226.0" y="297" fill="#10172d" textLength="8.4" lengthAdjust="spacing">│</text><text x="234.4" y="297" fill="#37e2ff" textLength="8.4" lengthAdjust="spacing">│</text><text x="259.6" y="297" fill="#37e2ff" textLength="8.4" lengthAdjust="spacing">●</text><text x="276.4" y="297" fill="#d7def5" textLength="210.0" lengthAdjust="spacing">Running&#160;cargo&#160;test&#160;limits</text><text x="604.0" y="297" fill="#37e2ff" textLength="8.4" lengthAdjust="spacing">│</text><text x="612.4" y="297" fill="#5b6690" textLength="8.4" lengthAdjust="spacing">│</text><text x="620.8" y="297" fill="#d7def5" textLength="277.2" lengthAdjust="spacing">test&#160;routes::sets_retry_after&#160;...</text><text x="906.4" y="297" fill="#7cf29a" textLength="16.8" lengthAdjust="spacing">ok</text><text x="1057.6" y="297" fill="#5b6690" textLength="8.4" lengthAdjust="spacing">│</text><text x="226.0" y="315" fill="#10172d" textLength="8.4" lengthAdjust="spacing">│</text><text x="234.4" y="315" fill="#37e2ff" textLength="92.4" lengthAdjust="spacing">│api-server</text><text x="335.2" y="315" fill="#ff4fd8" textLength="8.4" lengthAdjust="spacing">❯</text><text x="604.0" y="315" fill="#37e2ff" textLength="8.4" lengthAdjust="spacing">│</text><text x="612.4" y="315" fill="#5b6690" textLength="8.4" lengthAdjust="spacing">│</text><text x="1057.6" y="315" fill="#5b6690" textLength="8.4" lengthAdjust="spacing">│</text><text x="226.0" y="333" fill="#10172d" textLength="8.4" lengthAdjust="spacing">│</text><text x="234.4" y="333" fill="#37e2ff" textLength="8.4" lengthAdjust="spacing">│</text><text x="604.0" y="333" fill="#37e2ff" textLength="8.4" lengthAdjust="spacing">│</text><text x="612.4" y="333" fill="#5b6690" textLength="8.4" lengthAdjust="spacing">│</text><text x="620.8" y="333" fill="#d7def5" textLength="100.8" lengthAdjust="spacing">test&#160;result:</text><text x="730.0" y="333" fill="#7cf29a" textLength="16.8" lengthAdjust="spacing">ok</text><text x="746.8" y="333" fill="#d7def5" textLength="168.0" lengthAdjust="spacing">.&#160;6&#160;passed;&#160;0&#160;failed</text><text x="1057.6" y="333" fill="#5b6690" textLength="8.4" lengthAdjust="spacing">│</text><text x="226.0" y="351" fill="#10172d" textLength="8.4" lengthAdjust="spacing">│</text><text x="234.4" y="351" fill="#37e2ff" textLength="8.4" lengthAdjust="spacing">│</text><text x="604.0" y="351" fill="#37e2ff" textLength="8.4" lengthAdjust="spacing">│</text><text x="612.4" y="351" fill="#5b6690" textLength="8.4" lengthAdjust="spacing">│</text><text x="620.8" y="351" fill="#37e2ff" textLength="84.0" lengthAdjust="spacing">api-server</text><text x="713.2" y="351" fill="#ff4fd8" textLength="8.4" lengthAdjust="spacing">❯</text><text x="1057.6" y="351" fill="#5b6690" textLength="8.4" lengthAdjust="spacing">│</text><text x="24.4" y="369" fill="#5b6690" textLength="25.2" lengthAdjust="spacing">new</text><text x="192.4" y="369" fill="#5b6690" textLength="33.6" lengthAdjust="spacing">menu</text><text x="226.0" y="369" fill="#10172d" textLength="8.4" lengthAdjust="spacing">│</text><text x="234.4" y="369" fill="#37e2ff" textLength="8.4" lengthAdjust="spacing">│</text><text x="604.0" y="369" fill="#37e2ff" textLength="8.4" lengthAdjust="spacing">│</text><text x="612.4" y="369" fill="#5b6690" textLength="8.4" lengthAdjust="spacing">│</text><text x="1057.6" y="369" fill="#5b6690" textLength="8.4" lengthAdjust="spacing">│</text><text x="16.0" y="387" fill="#10172d" textLength="218.4" lengthAdjust="spacing">─────────────────────────│</text><text x="234.4" y="387" fill="#37e2ff" textLength="8.4" lengthAdjust="spacing">│</text><text x="604.0" y="387" fill="#37e2ff" textLength="8.4" lengthAdjust="spacing">│</text><text x="612.4" y="387" fill="#5b6690" textLength="8.4" lengthAdjust="spacing">│</text><text x="1057.6" y="387" fill="#5b6690" textLength="8.4" lengthAdjust="spacing">│</text><text x="24.4" y="405" fill="#5b6690" textLength="50.4" lengthAdjust="spacing" font-weight="700">agents</text><text x="167.2" y="405" fill="#5b6690" textLength="58.8" lengthAdjust="spacing" font-weight="700">grouped</text><text x="226.0" y="405" fill="#10172d" textLength="8.4" lengthAdjust="spacing">│</text><text x="234.4" y="405" fill="#37e2ff" textLength="8.4" lengthAdjust="spacing">│</text><text x="604.0" y="405" fill="#37e2ff" textLength="8.4" lengthAdjust="spacing">│</text><text x="612.4" y="405" fill="#5b6690" textLength="8.4" lengthAdjust="spacing">│</text><text x="1057.6" y="405" fill="#5b6690" textLength="8.4" lengthAdjust="spacing">│</text><text x="226.0" y="423" fill="#10172d" textLength="8.4" lengthAdjust="spacing">│</text><text x="234.4" y="423" fill="#37e2ff" textLength="8.4" lengthAdjust="spacing">│</text><text x="604.0" y="423" fill="#37e2ff" textLength="8.4" lengthAdjust="spacing">│</text><text x="612.4" y="423" fill="#5b6690" textLength="8.4" lengthAdjust="spacing">│</text><text x="1057.6" y="423" fill="#5b6690" textLength="8.4" lengthAdjust="spacing">│</text><rect x="16.0" y="428" width="210.4" height="18" fill="#16213f"/><text x="24.4" y="441" fill="#37e2ff" textLength="8.4" lengthAdjust="spacing">●</text><text x="41.2" y="441" fill="#d7def5" textLength="84.0" lengthAdjust="spacing" font-weight="700">api-server</text><text x="133.6" y="441" fill="#5b6690" textLength="67.2" lengthAdjust="spacing">·&#160;agents</text><text x="226.0" y="441" fill="#10172d" textLength="8.4" lengthAdjust="spacing">│</text><text x="234.4" y="441" fill="#37e2ff" textLength="8.4" lengthAdjust="spacing">│</text><text x="604.0" y="441" fill="#37e2ff" textLength="8.4" lengthAdjust="spacing">│</text><text x="612.4" y="441" fill="#5b6690" textLength="8.4" lengthAdjust="spacing">│</text><text x="1057.6" y="441" fill="#5b6690" textLength="8.4" lengthAdjust="spacing">│</text><rect x="16.0" y="446" width="210.4" height="18" fill="#16213f"/><text x="41.2" y="459" fill="#5b6690" textLength="50.4" lengthAdjust="spacing">claude</text><text x="226.0" y="459" fill="#10172d" textLength="8.4" lengthAdjust="spacing">│</text><text x="234.4" y="459" fill="#37e2ff" textLength="8.4" lengthAdjust="spacing">│</text><text x="604.0" y="459" fill="#37e2ff" textLength="8.4" lengthAdjust="spacing">│</text><text x="612.4" y="459" fill="#5b6690" textLength="8.4" lengthAdjust="spacing">│</text><text x="1057.6" y="459" fill="#5b6690" textLength="8.4" lengthAdjust="spacing">│</text><text x="24.4" y="477" fill="#37e2ff" textLength="8.4" lengthAdjust="spacing">●</text><text x="41.2" y="477" fill="#aab4d6" textLength="84.0" lengthAdjust="spacing" font-weight="700">api-server</text><text x="133.6" y="477" fill="#5b6690" textLength="50.4" lengthAdjust="spacing">·&#160;logs</text><text x="226.0" y="477" fill="#10172d" textLength="8.4" lengthAdjust="spacing">│</text><text x="234.4" y="477" fill="#37e2ff" textLength="8.4" lengthAdjust="spacing">│</text><text x="604.0" y="477" fill="#37e2ff" textLength="8.4" lengthAdjust="spacing">│</text><text x="612.4" y="477" fill="#5b6690" textLength="8.4" lengthAdjust="spacing">│</text><text x="1057.6" y="477" fill="#5b6690" textLength="8.4" lengthAdjust="spacing">│</text><text x="41.2" y="495" fill="#5b6690" textLength="67.2" lengthAdjust="spacing">opencode</text><text x="226.0" y="495" fill="#10172d" textLength="8.4" lengthAdjust="spacing">│</text><text x="234.4" y="495" fill="#37e2ff" textLength="8.4" lengthAdjust="spacing">│</text><text x="604.0" y="495" fill="#37e2ff" textLength="8.4" lengthAdjust="spacing">│</text><text x="612.4" y="495" fill="#5b6690" textLength="8.4" lengthAdjust="spacing">│</text><text x="1057.6" y="495" fill="#5b6690" textLength="8.4" lengthAdjust="spacing">│</text><text x="24.4" y="513" fill="#ff4fd8" textLength="8.4" lengthAdjust="spacing">●</text><text x="41.2" y="513" fill="#aab4d6" textLength="58.8" lengthAdjust="spacing" font-weight="700">web-app</text><text x="226.0" y="513" fill="#10172d" textLength="8.4" lengthAdjust="spacing">│</text><text x="234.4" y="513" fill="#37e2ff" textLength="8.4" lengthAdjust="spacing">│</text><text x="604.0" y="513" fill="#37e2ff" textLength="8.4" lengthAdjust="spacing">│</text><text x="612.4" y="513" fill="#5b6690" textLength="8.4" lengthAdjust="spacing">│</text><text x="1057.6" y="513" fill="#5b6690" textLength="8.4" lengthAdjust="spacing">│</text><text x="41.2" y="531" fill="#5b6690" textLength="42.0" lengthAdjust="spacing">codex</text><text x="226.0" y="531" fill="#10172d" textLength="8.4" lengthAdjust="spacing">│</text><text x="234.4" y="531" fill="#37e2ff" textLength="8.4" lengthAdjust="spacing">│</text><text x="604.0" y="531" fill="#37e2ff" textLength="8.4" lengthAdjust="spacing">│</text><text x="612.4" y="531" fill="#5b6690" textLength="8.4" lengthAdjust="spacing">│</text><text x="1057.6" y="531" fill="#5b6690" textLength="8.4" lengthAdjust="spacing">│</text><text x="24.4" y="549" fill="#7cf29a" textLength="8.4" lengthAdjust="spacing">●</text><text x="41.2" y="549" fill="#aab4d6" textLength="33.6" lengthAdjust="spacing" font-weight="700">docs</text><text x="226.0" y="549" fill="#10172d" textLength="8.4" lengthAdjust="spacing">│</text><text x="234.4" y="549" fill="#37e2ff" textLength="8.4" lengthAdjust="spacing">│</text><text x="604.0" y="549" fill="#37e2ff" textLength="8.4" lengthAdjust="spacing">│</text><text x="612.4" y="549" fill="#5b6690" textLength="8.4" lengthAdjust="spacing">│</text><text x="1057.6" y="549" fill="#5b6690" textLength="8.4" lengthAdjust="spacing">│</text><text x="41.2" y="567" fill="#5b6690" textLength="50.4" lengthAdjust="spacing">gemini</text><text x="226.0" y="567" fill="#10172d" textLength="8.4" lengthAdjust="spacing">│</text><text x="234.4" y="567" fill="#37e2ff" textLength="8.4" lengthAdjust="spacing">│</text><text x="604.0" y="567" fill="#37e2ff" textLength="8.4" lengthAdjust="spacing">│</text><text x="612.4" y="567" fill="#5b6690" textLength="8.4" lengthAdjust="spacing">│</text><text x="1057.6" y="567" fill="#5b6690" textLength="8.4" lengthAdjust="spacing">│</text><text x="226.0" y="585" fill="#10172d" textLength="8.4" lengthAdjust="spacing">│</text><text x="234.4" y="585" fill="#37e2ff" textLength="8.4" lengthAdjust="spacing">│</text><text x="604.0" y="585" fill="#37e2ff" textLength="8.4" lengthAdjust="spacing">│</text><text x="612.4" y="585" fill="#5b6690" textLength="8.4" lengthAdjust="spacing">│</text><text x="1057.6" y="585" fill="#5b6690" textLength="8.4" lengthAdjust="spacing">│</text><text x="226.0" y="603" fill="#10172d" textLength="8.4" lengthAdjust="spacing">│</text><text x="234.4" y="603" fill="#37e2ff" textLength="8.4" lengthAdjust="spacing">│</text><text x="604.0" y="603" fill="#37e2ff" textLength="8.4" lengthAdjust="spacing">│</text><text x="612.4" y="603" fill="#5b6690" textLength="8.4" lengthAdjust="spacing">│</text><text x="1057.6" y="603" fill="#5b6690" textLength="8.4" lengthAdjust="spacing">│</text><text x="217.6" y="621" fill="#5b6690" textLength="8.4" lengthAdjust="spacing">«</text><text x="226.0" y="621" fill="#10172d" textLength="8.4" lengthAdjust="spacing">│</text><text x="234.4" y="621" fill="#37e2ff" textLength="378.0" lengthAdjust="spacing">└───────────────────────────────────────────┘</text><text x="612.4" y="621" fill="#5b6690" textLength="453.6" lengthAdjust="spacing">└────────────────────────────────────────────────────┘</text></g></svg>
